<svg xmlns="http://www.w3.org/2000/svg" viewBox="0 0 600 400">
  <defs>
    <linearGradient id="g1" x1="0%" y1="0%" x2="100%" y2="100%">
      <stop offset="0%" stop-color="#1B3FC4"/>
      <stop offset="100%" stop-color="#2E5CF6"/>
    </linearGradient>
  </defs>
  <rect width="600" height="400" fill="url(#g1)"/>
  <circle cx="520" cy="60" r="120" fill="#ffffff" opacity="0.06"/>
  <circle cx="50" cy="360" r="140" fill="#ffffff" opacity="0.05"/>

  <!-- road -->
  <rect x="0" y="300" width="600" height="6" fill="#ffffff" opacity="0.18"/>
  <rect x="0" y="298" width="40" height="4" fill="#ffffff" opacity="0.35"/>
  <rect x="80" y="298" width="40" height="4" fill="#ffffff" opacity="0.35"/>
  <rect x="160" y="298" width="40" height="4" fill="#ffffff" opacity="0.35"/>
  <rect x="240" y="298" width="40" height="4" fill="#ffffff" opacity="0.35"/>
  <rect x="320" y="298" width="40" height="4" fill="#ffffff" opacity="0.35"/>
  <rect x="400" y="298" width="40" height="4" fill="#ffffff" opacity="0.35"/>
  <rect x="480" y="298" width="40" height="4" fill="#ffffff" opacity="0.35"/>
  <rect x="560" y="298" width="40" height="4" fill="#ffffff" opacity="0.35"/>

  <!-- car body -->
  <g transform="translate(190,175)">
    <path d="M20 90 L35 45 C40 30 55 22 72 22 L148 22 C165 22 180 30 185 45 L200 90 Z" fill="#ffffff" opacity="0.95"/>
    <path d="M60 22 L75 -18 C78 -25 85 -30 93 -30 L127 -30 C135 -30 142 -25 145 -18 L160 22 Z" fill="#ffffff" opacity="0.95"/>
    <rect x="20" y="85" width="180" height="18" rx="9" fill="#ffffff"/>
    <circle cx="60" cy="105" r="22" fill="#0B1220"/>
    <circle cx="60" cy="105" r="10" fill="#ffffff" opacity="0.6"/>
    <circle cx="160" cy="105" r="22" fill="#0B1220"/>
    <circle cx="160" cy="105" r="10" fill="#ffffff" opacity="0.6"/>
    <rect x="84" y="-20" width="52" height="34" rx="4" fill="#2E5CF6" opacity="0.5"/>
  </g>

  <text x="40" y="50" font-family="'JetBrains Mono', monospace" font-weight="600" font-size="20" fill="#ffffff" opacity="0.55">// vehicle-rental</text>
</svg>
